<svg width="9" height="15" viewBox="0 0 9 15" fill="none" xmlns="http://www.w3.org/2000/svg">
<path d="M7.27698 9.7517C6.61604 10.2154 5.70664 10.3993 5.106 10.4686L5.61015 11.0177L7.45066 13.0512C8.12367 13.8134 7.02853 15.0048 6.34829 14.2692C5.88756 13.7521 5.21214 13.0059 4.50778 12.2277L2.66727 14.2665C1.98703 14.9994 0.891885 13.7974 1.57213 13.0485C2.04009 12.5315 2.70827 11.7852 3.41264 11.015L3.90955 10.466C3.31615 10.3967 2.39228 10.2234 1.7241 9.74903C0.937717 9.18934 0.592772 8.86152 0.89671 8.17657C1.07521 7.78745 1.56489 7.45964 2.21377 8.02466C2.21377 8.02466 3.0894 8.7949 4.50295 8.7949C5.9165 8.7949 6.79213 8.02466 6.79213 8.02466C7.44101 7.4623 7.92828 7.78745 8.10919 8.17657C8.40831 8.86152 8.06336 9.18934 7.27698 9.7517ZM1.37191 4.30672C1.37191 2.39578 2.77823 0.849976 4.50054 0.849976C6.22285 0.849976 7.62917 2.39578 7.62917 4.30672C7.62917 6.20966 6.22285 7.75547 4.50054 7.75547C2.77823 7.75547 1.37191 6.20966 1.37191 4.30672ZM2.96397 4.30672C2.96397 5.2422 3.65386 6.00445 4.50054 6.00445C5.34722 6.00445 6.03711 5.2422 6.03711 4.30672C6.03711 3.36325 5.34722 2.601 4.50054 2.601C3.65386 2.601 2.96397 3.36325 2.96397 4.30672Z" fill="#4F4F4F"/>
</svg>
