<svg width="36" height="34" viewBox="0 0 36 34" fill="none" xmlns="http://www.w3.org/2000/svg">
<path d="M4.49959 14.6251H31.5C31.841 14.6248 32.1632 14.4699 32.3769 14.2042C32.5904 13.9385 32.672 13.5902 32.5987 13.2573L30.253 2.6551C30.1159 1.92056 29.7301 1.25584 29.1604 0.772211C28.5908 0.288808 27.8721 0.0160717 27.1253 0H8.87431C8.1237 0.0173272 7.40202 0.293308 6.83122 0.781469C6.26042 1.26939 5.87598 1.93966 5.74213 2.67844L3.40094 13.2575C3.32762 13.5904 3.40923 13.9388 3.62268 14.2044C3.83638 14.4701 4.15857 14.625 4.49962 14.6253L4.49959 14.6251ZM30.0992 12.375H5.89975L7.94362 3.14091C7.97224 2.90787 8.08073 2.69216 8.25023 2.52969C8.41974 2.36747 8.64022 2.26852 8.87401 2.24994H27.125C27.3553 2.26701 27.5727 2.36219 27.7415 2.52014C27.91 2.67809 28.0192 2.88904 28.0511 3.11781L30.0992 12.375Z" fill="#F8AC01"/>
<path d="M2.24952 23.6252H33.75C34.0483 23.6252 34.3346 23.5066 34.5455 23.2957C34.7565 23.0848 34.875 22.7985 34.875 22.5001V15.75C34.874 14.8553 34.5182 13.9972 33.8853 13.3647C33.2527 12.7319 32.3946 12.376 31.5 12.375H4.49956C3.60481 12.376 2.74672 12.7318 2.1142 13.3647C1.48137 13.9973 1.12553 14.8554 1.1245 15.75V22.5001C1.1245 22.7985 1.24304 23.0848 1.45398 23.2957C1.66491 23.5066 1.95119 23.6252 2.24952 23.6252ZM32.625 21.3751H3.37454V15.75C3.37479 15.4517 3.49332 15.1657 3.70426 14.9548C3.9152 14.7438 4.20123 14.6253 4.49955 14.625H31.4999C31.7983 14.6253 32.0843 14.7438 32.2952 14.9548C32.5062 15.1657 32.6247 15.4517 32.625 15.75L32.625 21.3751Z" fill="#F8AC01"/>
<path d="M27 19.125H29.25C29.652 19.125 30.0234 18.9106 30.2243 18.5625C30.4252 18.2145 30.4252 17.7856 30.2243 17.4375C30.0234 17.0895 29.652 16.875 29.25 16.875H27C26.5979 16.875 26.2265 17.0895 26.0256 17.4375C25.8247 17.7856 25.8247 18.2145 26.0256 18.5625C26.2265 18.9106 26.5979 19.125 27 19.125Z" fill="#F8AC01"/>
<path d="M6.74997 19.125H9C9.40204 19.125 9.77343 18.9106 9.97433 18.5625C10.1752 18.2145 10.1752 17.7856 9.97433 17.4375C9.77343 17.0895 9.40203 16.875 9 16.875H6.74997C6.34792 16.875 5.97653 17.0895 5.77564 17.4375C5.57474 17.7856 5.57474 18.2145 5.77564 18.5625C5.97653 18.9106 6.34794 19.125 6.74997 19.125Z" fill="#F8AC01"/>
<path d="M13.4999 19.125H22.5C22.902 19.125 23.2734 18.9106 23.4743 18.5625C23.6752 18.2145 23.6752 17.7856 23.4743 17.4375C23.2734 17.0895 22.902 16.875 22.5 16.875H13.4999C13.0978 16.875 12.7264 17.0895 12.5255 17.4375C12.3246 17.7856 12.3246 18.2145 12.5255 18.5625C12.7264 18.9106 13.0978 19.125 13.4999 19.125Z" fill="#F8AC01"/>
<path d="M28.1259 33.7506H30.3759C31.2707 33.7496 32.1288 33.3938 32.7613 32.7609C33.3941 32.1283 33.7499 31.2702 33.751 30.3756V27.0005C33.751 26.7022 33.6324 26.4159 33.4215 26.205C33.2106 25.994 32.9243 25.8755 32.626 25.8755H25.8759C25.5775 25.8755 25.2913 25.994 25.0803 26.205C24.8694 26.4159 24.7508 26.7022 24.7508 27.0005V30.3756C24.7518 31.2703 25.1077 32.1284 25.7405 32.7609C26.3731 33.3937 27.2312 33.7496 28.1259 33.7506ZM31.5009 28.1255V30.3756C31.5007 30.6739 31.3822 30.9599 31.1712 31.1708C30.9603 31.3818 30.6743 31.5003 30.3759 31.5006H28.1259C27.8276 31.5003 27.5415 31.3818 27.3306 31.1708C27.1197 30.9599 27.0011 30.6739 27.0009 30.3756V28.1255H31.5009Z" fill="#F8AC01"/>
<path d="M5.62394 33.7506H7.87397C8.76872 33.7496 9.62681 33.3938 10.2593 32.7609C10.8922 32.1283 11.248 31.2702 11.249 30.3756V27.0005C11.249 26.7022 11.1305 26.4159 10.9196 26.205C10.7086 25.994 10.4223 25.8755 10.124 25.8755H3.37391C3.07558 25.8755 2.7893 25.994 2.57836 26.205C2.36742 26.4159 2.24889 26.7022 2.24889 27.0005V30.3756C2.2499 31.2703 2.60573 32.1284 3.23858 32.7609C3.87115 33.3937 4.72926 33.7496 5.62394 33.7506ZM8.99899 28.1255V30.3756C8.99874 30.6739 8.88021 30.9599 8.66927 31.1708C8.45833 31.3818 8.1723 31.5003 7.87398 31.5006H5.62395C5.32562 31.5003 5.03959 31.3818 4.82866 31.1708C4.61772 30.9599 4.49919 30.6739 4.49894 30.3756V28.1255H8.99899Z" fill="#F8AC01"/>
<path d="M31.5 14.6249C31.7343 14.6249 31.9625 14.5516 32.1531 14.4155C32.344 14.2794 32.4874 14.0873 32.5634 13.8658L33.4687 11.23H34.875C35.277 11.23 35.6484 11.0156 35.8493 10.6675C36.0502 10.3195 36.0502 9.89054 35.8493 9.54249C35.6484 9.19443 35.277 8.97998 34.875 8.97998H32.6657C32.4314 8.98023 32.2028 9.05356 32.012 9.18966C31.8211 9.32552 31.6775 9.51763 31.6009 9.73912L30.4365 13.134C30.3396 13.4163 30.3586 13.7254 30.4892 13.9936C30.6201 14.2618 30.8518 14.4672 31.1341 14.5644C31.2519 14.6043 31.3754 14.6247 31.5 14.6249L31.5 14.6249Z" fill="#F8AC01"/>
<path d="M4.49955 14.6249C4.62385 14.6247 4.74741 14.6041 4.86543 14.5644C5.14744 14.4672 5.37922 14.2618 5.51003 13.9936C5.64087 13.7254 5.65995 13.4163 5.56277 13.134L4.39834 9.73912C4.32175 9.51763 4.17811 9.32552 3.98726 9.18966C3.79641 9.05356 3.56815 8.98023 3.3336 8.97998H1.12451C0.722468 8.97998 0.351081 9.19443 0.150186 9.54249C-0.0507102 9.89054 -0.0507102 10.3195 0.150186 10.6675C0.351081 11.0156 0.722481 11.23 1.12451 11.23H2.53078L3.43607 13.8658C3.51216 14.0873 3.65555 14.2794 3.8464 14.4155C4.03699 14.5516 4.26526 14.6249 4.49955 14.6249V14.6249Z" fill="#F8AC01"/>
<path d="M3.37458 28.1251H32.625C33.8309 28.1251 34.9451 27.4817 35.5478 26.4376C36.1507 25.3934 36.1507 24.1067 35.5478 23.0625C34.9451 22.0184 33.8309 21.375 32.625 21.375H3.37458C2.16869 21.375 1.05447 22.0184 0.451782 23.0625C-0.151157 24.1067 -0.151157 25.3934 0.451782 26.4376C1.05447 27.4817 2.16869 28.1251 3.37458 28.1251ZM32.625 23.625C33.027 23.625 33.3984 23.8395 33.5993 24.1875C33.8002 24.5356 33.8002 24.9645 33.5993 25.3126C33.3984 25.6606 33.027 25.8751 32.625 25.8751H3.37458C2.97253 25.8751 2.60114 25.6606 2.40025 25.3126C2.19935 24.9645 2.19935 24.5356 2.40025 24.1875C2.60114 23.8395 2.97255 23.625 3.37458 23.625H32.625Z" fill="#F8AC01"/>
</svg>
