<svg width="48" height="34" viewBox="0 0 48 34" fill="none" xmlns="http://www.w3.org/2000/svg">
<path d="M15.9997 18.1334C16.4619 18.1334 16.8786 18.4093 17.0558 18.8328C17.2326 19.2562 17.1346 19.7439 16.8078 20.0679C16.481 20.392 15.9893 20.4891 15.5623 20.3138C15.1352 20.1381 14.857 19.7249 14.857 19.2665C14.857 18.6408 15.3687 18.1334 15.9997 18.1334ZM21.7142 19.2665C21.7142 19.7249 21.9924 20.1381 22.4194 20.3138C22.8465 20.4891 23.3382 20.3919 23.665 20.0679C23.9918 19.7438 24.0897 19.2562 23.913 18.8327C23.7358 18.4092 23.3191 18.1334 22.8569 18.1334C22.2259 18.1334 21.7142 18.6408 21.7142 19.2665ZM28.5714 19.2665C28.5714 19.7249 28.8495 20.1381 29.2766 20.3138C29.7036 20.4891 30.1953 20.3919 30.5221 20.0679C30.8489 19.7438 30.9469 19.2562 30.7701 18.8327C30.5929 18.4092 30.1762 18.1334 29.714 18.1334C29.083 18.1334 28.5714 18.6408 28.5714 19.2665ZM46.857 11.3334C46.554 11.333 46.2631 11.4525 46.0489 11.665C45.8346 11.8775 45.714 12.1659 45.7144 12.4665V30.6002C45.7144 31.2259 46.226 31.7336 46.857 31.7336C47.4884 31.7336 48 31.2259 48 30.6002V12.4665C48 12.1659 47.8798 11.8775 47.6656 11.665C47.4513 11.4525 47.1605 11.333 46.857 11.3334ZM1.14279 24.933V24.9334C1.44586 24.9334 1.73667 24.8143 1.95096 24.6014C2.16524 24.3889 2.28578 24.1005 2.2854 23.7999V20.3999H6.85696V23.7999C6.85849 25.3023 7.46117 26.7427 8.53225 27.8052C9.60373 28.8677 11.0563 29.4649 12.5711 29.4665H14.3837L17.2812 32.3398C18.3503 33.4061 19.8052 34.0038 21.3212 34H30.6962C32.6072 34.0023 34.3926 33.0547 35.4507 31.4765L38.3256 27.2H42.2857V24.9334H37.7141C37.3318 24.9334 36.9752 25.1228 36.7632 25.4381L33.549 30.219C32.9141 31.1662 31.8431 31.7346 30.6963 31.7335H21.3213C20.4125 31.7304 19.5416 31.3726 18.8972 30.7374L15.665 27.532C15.4507 27.3195 15.1602 27.2 14.8572 27.2H12.5712C11.6624 27.1988 10.7907 26.8406 10.1483 26.2031C9.50542 25.5656 9.1438 24.7016 9.14263 23.8V14.7334C9.14378 13.8318 9.50538 12.9677 10.1483 12.3303C10.7908 11.6928 11.6624 11.3342 12.5712 11.3334H33.1426C34.0518 11.3342 34.9231 11.6927 35.5659 12.3303C36.2088 12.9678 36.5704 13.8318 36.5712 14.7334V17C36.5712 17.3005 36.6914 17.5889 36.906 17.8014C37.1203 18.0143 37.4111 18.1334 37.7142 18.1334H42.2857V15.8669L38.8572 15.8665V14.7334C38.8556 13.2307 38.253 11.7903 37.1816 10.7282C36.1105 9.66565 34.658 9.06802 33.1427 9.06657H24V2.26654H29.7142C30.3455 2.26654 30.8571 1.7592 30.8571 1.13347C30.8571 0.50735 30.3455 0 29.7142 0H15.9999C15.3689 0 14.8573 0.50735 14.8573 1.13347C14.8573 1.7592 15.3689 2.26654 15.9999 2.26654H21.7144V9.06657H12.5713C11.0564 9.06809 9.60382 9.66575 8.53244 10.7282C7.46136 11.7904 6.85871 13.2308 6.85714 14.7334V18.1334H2.28558V14.7334C2.28558 14.1073 1.77397 13.5999 1.14299 13.5999C0.511611 13.5999 0 14.1073 0 14.7334V23.8C0 24.1005 0.120157 24.3889 0.334443 24.6014C0.548728 24.8143 0.83954 24.9335 1.14299 24.9335L1.14279 24.933Z" fill="#F8AC01"/>
</svg>
