<svg width="35" height="35" viewBox="0 0 35 35" fill="none" xmlns="http://www.w3.org/2000/svg">
<path d="M1.0375 34.9998C0.748845 34.9998 0.501599 34.8759 0.295753 34.7105C0.0484992 34.4626 -0.0751273 34.0907 0.0484994 33.7186L1.28506 29.1319C1.36757 28.7601 1.65594 28.5122 2.02681 28.3882C2.39769 28.3055 2.76855 28.3882 3.01607 28.6361L3.51058 29.1319L11.3005 21.322V6.15682H10.5998C10.2289 6.15682 9.89917 5.95015 9.69306 5.66104C9.48692 5.33043 9.48692 4.9586 9.69306 4.62799L12.0425 0.495777C12.2487 0.165163 12.5784 0 12.9493 0C13.3201 0 13.6499 0.20667 13.856 0.537276L16.2055 4.66949C16.4117 5.0001 16.4117 5.37193 16.2055 5.70254C15.9994 6.03315 15.6696 6.19832 15.2988 6.19832H14.5981V20.3718H28.859V19.6694C28.859 19.2975 29.0651 18.9669 29.3535 18.7603C29.6832 18.5536 30.0541 18.5536 30.3839 18.7603L34.5055 21.1158C34.8353 21.3225 35 21.6531 35 22.0249C35 22.3967 34.7939 22.7273 34.5055 22.934L30.3839 25.2895C30.0541 25.4961 29.6832 25.4961 29.3535 25.2895C29.0237 25.0828 28.859 24.7522 28.859 24.3804V23.6779L13.6494 23.6776L5.85954 31.4875L6.35405 31.9833C6.6013 32.2312 6.72493 32.603 6.6013 32.9751C6.51879 33.3469 6.23042 33.5948 5.85955 33.7188L1.28455 34.9585C1.24343 34.9585 1.11981 35 1.03729 35L1.0375 34.9998ZM2.39764 29.7519L1.36723 33.6362L5.24163 32.6032L4.82935 32.1898C4.41707 31.7765 4.41707 31.1155 4.82935 30.7434L12.8253 22.7269C13.0314 22.5202 13.2787 22.4375 13.5671 22.4375L29.0644 22.4378C29.6414 22.4378 30.0948 22.8924 30.0948 23.4709V24.0494L33.5983 22.0245L30.0948 19.9587V20.5372C30.0948 21.1157 29.6414 21.5702 29.0644 21.5702H14.3914C13.8144 21.5702 13.361 21.1157 13.361 20.5372V5.95048C13.361 5.37199 13.8144 4.91743 14.3914 4.91743H14.9684L12.9487 1.4049L10.9291 4.91743H11.5061C12.0831 4.91743 12.5365 5.37199 12.5365 5.95048V21.4049C12.5365 21.6943 12.4128 21.9422 12.2478 22.1486L4.25186 30.1651C3.83958 30.5784 3.18031 30.5784 2.80914 30.1651L2.39764 29.7519Z" fill="#F8AC01"/>
</svg>
