<svg width="36" height="36" viewBox="0 0 36 36" fill="none" xmlns="http://www.w3.org/2000/svg">
<path d="M17.2199 3.53324L14.5791 6.17408L15.4718 7.06678L17.0339 5.50467V11.3441H18.2984V5.5418L19.8605 7.1039L20.7532 6.2112L18.1124 3.53331C17.8522 3.31019 17.4801 3.31019 17.2199 3.53331L17.2199 3.53324Z" fill="#F8AC01"/>
<path d="M11.3813 18.2989V17.0344H5.54216L7.10427 15.4723L6.21157 14.5796L3.53367 17.2204C3.42212 17.332 3.34766 17.518 3.34766 17.6667C3.34766 17.8153 3.42212 18.0013 3.53367 18.1129L6.17451 20.7537L7.06721 19.861L5.5051 18.2989L11.3813 18.2989Z" fill="#F8AC01"/>
<path d="M18.2994 29.7916V23.9524H17.0349V29.7918L15.4728 28.2297L14.5801 29.1224L17.2209 31.7633C17.3325 31.8748 17.5185 31.9493 17.6672 31.9493C17.8158 31.9493 18.0018 31.8748 18.1134 31.7633L20.7542 29.1224L19.8615 28.2297L18.2994 29.7916Z" fill="#F8AC01"/>
<path d="M31.7999 17.2204L29.159 14.5796L28.2663 15.4723L29.8284 17.0344H23.9521V18.2989H29.7916L28.2295 19.861L29.1222 20.7537L31.763 18.1129C32.023 17.8526 32.023 17.4806 31.7999 17.2204L31.7999 17.2204Z" fill="#F8AC01"/>
<path d="M11.7531 8.62877V7.36427L7.99651 7.36401C7.66183 7.36401 7.36426 7.66159 7.36426 7.99626V11.7156H8.62875V9.52124L12.7572 13.6497L13.6499 12.757L9.55878 8.62881L11.7531 8.62877Z" fill="#F8AC01"/>
<path d="M12.7569 21.6462L8.62875 25.7744V23.5801H7.36426V27.2994C7.36426 27.6341 7.66184 27.9316 7.99651 27.9316H11.7158V26.6671H9.52149L13.6499 22.5387L12.7569 21.6462Z" fill="#F8AC01"/>
<path d="M26.7045 25.7749L22.5763 21.6467L21.6836 22.5394L25.812 26.6679H23.6177V27.9323H27.337C27.6717 27.9323 27.9692 27.6348 27.9692 27.3001V23.5808H26.7048L26.7045 25.7749Z" fill="#F8AC01"/>
<path d="M22.5763 13.687L26.7048 9.55861V11.7529H27.9693V7.99651C27.9693 7.66183 27.6717 7.36426 27.337 7.36426H23.6177V8.62875H25.812L21.6465 12.7572L22.5763 13.687Z" fill="#F8AC01"/>
<path d="M17.6667 0C7.92211 0 0 7.92211 0 17.6667C0 27.4113 7.92211 35.3334 17.6667 35.3334C27.4113 35.3334 35.3334 27.4113 35.3334 17.6667C35.3334 7.92211 27.4113 0 17.6667 0ZM17.6667 34.0688C8.62878 34.0688 1.26456 26.7046 1.26456 17.6667C1.26456 8.62878 8.62878 1.26456 17.6667 1.26456C26.7046 1.26456 34.0688 8.62878 34.0688 17.6667C34.0688 26.7046 26.7046 34.0688 17.6667 34.0688Z" fill="#F8AC01"/>
</svg>
