<svg width="29" height="35" viewBox="0 0 29 35" fill="none" xmlns="http://www.w3.org/2000/svg">
<path d="M27.9498 5.4833H26.2764V2.42126C26.2764 1.10394 25.1727 0.000248422 23.8554 0.000248422L15.4526 0C14.1353 0 13.0316 1.10369 13.0316 2.42102V5.48305H11.5717C11.4294 5.48305 11.3223 5.51857 11.2155 5.62536L9.39974 7.2988L8.18923 5.946L8.50962 5.66113C8.72321 5.44754 8.75898 5.12715 8.54514 4.91329L6.65807 2.88393C6.44448 2.67034 6.12409 2.63458 5.91024 2.84842L0.178076 8.08236C0.0712798 8.18916 0 8.29595 0 8.43851C0 8.58083 0.0355152 8.72338 0.142312 8.83018L2.02938 10.8953C2.13618 11.0021 2.24297 11.0734 2.38553 11.0734H2.42105C2.56336 11.0734 2.6704 11.0378 2.7772 10.931L3.09759 10.6462L4.34389 11.9992L2.74173 13.4946C2.63493 13.6014 2.56365 13.744 2.56365 13.8863V34.466C2.56365 34.7509 2.81301 35 3.09763 35H27.9856C28.2704 35 28.5195 34.7506 28.5195 34.466V6.01695C28.484 5.73208 28.2347 5.48298 27.95 5.48298L27.9498 5.4833ZM14.0995 2.42126C14.0995 1.67343 14.7047 1.06821 15.4525 1.06821H23.8553C24.6031 1.06821 25.2084 1.67346 25.2084 2.42126V5.4833H24.0334V2.84846C24.0334 2.56359 23.784 2.31449 23.4994 2.31449H15.7731C15.4882 2.31449 15.2391 2.56384 15.2391 2.84846V5.4833H14.0997L14.0995 2.42126ZM22.9651 5.4833H16.307V3.38266H22.9651V5.4833ZM1.28164 8.5096L6.23074 3.9877L7.37023 5.234L2.45667 9.75591L1.28164 8.5096ZM3.88074 9.8982L7.40571 6.65808L8.61621 7.9754L5.09125 11.2155L3.88074 9.8982ZM27.4157 33.896H3.5959V14.0996L11.7851 6.55132L27.4157 6.55108V33.896Z" fill="#F8AC01"/>
<path d="M6.58594 15.9509V29.8013C6.58594 30.0862 6.8353 30.3353 7.11992 30.3353H23.8899C24.1748 30.3353 24.4239 30.0859 24.4239 29.8013V10.6458C24.4239 10.3609 24.1745 10.1118 23.8899 10.1118H12.8523C12.71 10.1118 12.603 10.1473 12.4962 10.2541L6.76377 15.5593C6.65697 15.6661 6.58594 15.8085 6.58594 15.951L6.58594 15.9509ZM7.65391 16.2001L13.0659 11.1797H23.3558V29.267H7.65397L7.65391 16.2001Z" fill="#F8AC01"/>
<path d="M15.8787 15.0252C15.6651 14.8116 15.3447 14.8116 15.1309 15.0252C14.7392 15.4169 11.1787 18.9773 11.1787 21.2561C11.1787 23.6416 13.1371 25.5999 15.5225 25.5999C17.9081 25.5999 19.8663 23.6415 19.8663 21.2561C19.8308 19.0129 16.2703 15.4168 15.8786 15.0252H15.8787ZM15.487 24.5317C13.6712 24.5317 12.2114 23.0719 12.2114 21.2561C12.2114 19.8675 14.312 17.4107 15.487 16.1647C16.662 17.3752 18.7627 19.8675 18.7627 21.2561C18.7627 23.0721 17.3028 24.5317 15.487 24.5317Z" fill="#F8AC01"/>
<path d="M15.4876 23.8912C17.0184 23.8912 18.1935 22.7163 18.1935 21.1853H17.1253C17.1253 22.111 16.4132 22.8233 15.4873 22.8233L15.4876 23.8912Z" fill="#F8AC01"/>
</svg>
