<svg width="48" height="48" viewBox="0 0 48 48" fill="none" xmlns="http://www.w3.org/2000/svg">
<path d="M27.297 41.8466C27.5237 42.0187 27.8284 42.0478 28.0835 41.9216C28.3387 41.795 28.5004 41.5348 28.5007 41.2502V33.7241C28.7184 33.4706 28.9012 33.1894 29.0445 32.8877C29.1295 32.7012 29.238 32.5261 29.3669 32.3664C29.5266 32.2375 29.7017 32.1294 29.8882 32.044C30.366 31.8438 30.7752 31.5089 31.0658 31.0804C31.2911 30.6146 31.3758 30.0933 31.3095 29.5804C31.2904 29.3714 31.2981 29.1608 31.332 28.9539C31.4036 28.7681 31.498 28.5916 31.6132 28.4289C31.9303 28.0158 32.1205 27.5196 32.1606 27.0002C32.1238 26.4776 31.9346 25.977 31.6169 25.5602C31.5017 25.3978 31.4073 25.2213 31.3356 25.0352C31.3018 24.8282 31.2941 24.618 31.3132 24.409C31.3795 23.8958 31.2948 23.3748 31.0694 22.909C30.7785 22.4805 30.3697 22.1456 29.8919 21.9451C29.7054 21.86 29.5303 21.7516 29.3706 21.6227C29.2417 21.4633 29.1335 21.2882 29.0482 21.1013C28.8479 20.6239 28.5131 20.2147 28.0846 19.9241C27.6188 19.6985 27.0975 19.6138 26.5846 19.6804C26.3743 19.6998 26.1627 19.6924 25.9544 19.6576C25.7683 19.5863 25.5921 19.4919 25.4294 19.3764C25.0149 19.0637 24.5187 18.8772 24.0007 18.8403C23.4781 18.8775 22.9775 19.0663 22.5606 19.3841C22.3983 19.4993 22.2218 19.594 22.0356 19.6653C21.8287 19.6988 21.6185 19.7062 21.4095 19.6878C20.8962 19.6208 20.375 19.7055 19.9095 19.9315C19.481 20.2221 19.1458 20.6313 18.9456 21.1091C18.8605 21.2956 18.7521 21.4707 18.6232 21.6304C18.4638 21.7593 18.2887 21.8674 18.1018 21.9528C17.6244 22.153 17.2152 22.4879 16.9246 22.9164C16.699 23.3821 16.6143 23.9035 16.6809 24.4164C16.6996 24.6253 16.6923 24.8356 16.6581 25.0429C16.5868 25.2287 16.4924 25.4051 16.3769 25.5679C16.0635 25.9834 15.877 26.4809 15.8408 27.0002C15.8777 27.5229 16.0668 28.0235 16.3846 28.4403C16.4998 28.6027 16.5942 28.7792 16.6658 28.9653C16.6996 29.1722 16.7073 29.3825 16.6883 29.5914C16.622 30.1047 16.7067 30.6257 16.932 31.0914C17.223 31.52 17.6318 31.8548 18.1096 32.0554C18.296 32.1404 18.4712 32.2489 18.6309 32.3778C18.7598 32.5372 18.8679 32.7123 18.9533 32.8991C19.0983 33.1985 19.2824 33.477 19.5007 33.7278V41.2503C19.5011 41.5349 19.6628 41.795 19.9179 41.9216C20.1731 42.0478 20.4777 42.0187 20.7044 41.8466L24.0007 39.3264L27.297 41.8466ZM20.6705 32.7677C20.5088 32.6033 20.3813 32.4081 20.2955 32.1938C20.1449 31.8687 19.9453 31.569 19.7032 31.3052C19.4391 31.0631 19.1394 30.8633 18.8143 30.7126C18.6 30.6272 18.4052 30.4996 18.2408 30.3376C18.1822 30.1163 18.1668 29.8859 18.1956 29.6589C18.227 29.2986 18.2029 28.9357 18.1246 28.5824C18.0188 28.2466 17.8621 27.9292 17.6595 27.6413C17.5139 27.4524 17.4091 27.2355 17.3518 27.0038C17.4101 26.7721 17.5162 26.5548 17.6632 26.3663C17.8658 26.0783 18.0225 25.7609 18.1283 25.4251C18.2066 25.0722 18.2307 24.7093 18.1996 24.349C18.1704 24.122 18.1858 23.8913 18.2444 23.67C18.4088 23.5079 18.6037 23.3807 18.8183 23.295C19.1431 23.1443 19.4428 22.9444 19.7069 22.7027C19.949 22.4385 20.1489 22.1388 20.2996 21.8137C20.3849 21.5994 20.5125 21.4046 20.6746 21.2402C20.8945 21.1822 21.1236 21.1668 21.3496 21.195C21.7098 21.2264 22.0728 21.2027 22.4257 21.124C22.7619 21.0168 23.0793 20.8588 23.3668 20.6552C23.554 20.5072 23.77 20.4001 24.0007 20.3402C24.231 20.3974 24.4466 20.5022 24.6345 20.6475C24.9224 20.8501 25.2398 21.0071 25.5756 21.1126C25.9285 21.1916 26.2915 21.2157 26.6518 21.1839C26.8791 21.1551 27.1095 21.1705 27.3308 21.2288C27.4925 21.3932 27.6201 21.5884 27.7058 21.8027C27.8564 22.1274 28.056 22.4274 28.2981 22.6913C28.5623 22.9333 28.8619 23.1332 29.187 23.2839C29.4013 23.3693 29.5962 23.4968 29.7606 23.6589C29.8192 23.8802 29.8346 24.1106 29.8058 24.3376C29.7743 24.6978 29.7984 25.0608 29.8768 25.4137C29.9826 25.7496 30.1393 26.0673 30.3418 26.3552C30.4875 26.5437 30.5923 26.761 30.6495 26.9927C30.5913 27.2244 30.4851 27.4417 30.3381 27.6302C30.1356 27.9182 29.9789 28.2356 29.8731 28.5714C29.7947 28.9243 29.7706 29.2872 29.8018 29.6475C29.8309 29.8745 29.8155 30.1052 29.7569 30.3262C29.5925 30.4882 29.3976 30.6158 29.183 30.7012C28.5006 30.9777 27.9596 31.5188 27.683 32.2012C27.5976 32.4155 27.4701 32.6107 27.308 32.7751C27.088 32.8333 26.859 32.8484 26.633 32.8199C26.2727 32.7888 25.9098 32.8129 25.5569 32.8913C25.2207 32.9981 24.9033 33.1564 24.6157 33.36C24.4279 33.5053 24.2123 33.6101 23.9819 33.6677C23.7515 33.6101 23.5359 33.5053 23.3481 33.36C23.0601 33.1574 22.7427 33.0007 22.4069 32.8949C22.1743 32.8363 21.9345 32.8086 21.6944 32.8126H21.3194C21.1021 32.8377 20.8822 32.8223 20.6706 32.7677L20.6705 32.7677ZM21.0007 39.7501V34.3199H21.4095C21.6194 34.3008 21.8314 34.3082 22.0393 34.3427C22.2255 34.414 22.4019 34.5084 22.5643 34.6239C22.9812 34.938 23.4801 35.1245 24.0007 35.16C24.5234 35.1228 25.024 34.934 25.4408 34.6162C25.6032 34.501 25.7796 34.4063 25.9658 34.335C26.1727 34.3011 26.383 34.2934 26.5919 34.3125H27.0007V39.7501L24.4544 37.8038C24.1855 37.5982 23.8122 37.5982 23.5433 37.8038L21.0007 39.7501Z" fill="#F8AC01"/>
<path d="M28.5 27C28.5 25.8063 28.0259 24.662 27.1821 23.8179C26.3381 22.9741 25.1937 22.5 24 22.5C22.8063 22.5 21.662 22.9741 20.8179 23.8179C19.9741 24.6619 19.5 25.8063 19.5 27C19.5 28.1937 19.9741 29.338 20.8179 30.1821C21.6619 31.0259 22.8063 31.5 24 31.5C25.1937 31.5 26.338 31.0259 27.1821 30.1821C28.0259 29.3381 28.5 28.1937 28.5 27ZM21 27C21 26.2045 21.3161 25.4414 21.8786 24.8786C22.4414 24.3161 23.2045 24 24 24C24.7955 24 25.5586 24.3161 26.1214 24.8786C26.6839 25.4414 27 26.2045 27 27C27 27.7955 26.6839 28.5586 26.1214 29.1214C25.5586 29.6839 24.7955 30 24 30C23.2045 30 22.4414 29.6839 21.8786 29.1214C21.3161 28.5586 21 27.7955 21 27Z" fill="#F8AC01"/>
<path d="M44.25 0H3.75C2.75554 0 1.80171 0.395092 1.09817 1.09817C0.395048 1.80163 0 2.75554 0 3.75V44.25C0 45.2445 0.395091 46.1983 1.09817 46.9018C1.80163 47.6049 2.75554 48 3.75 48H44.25C45.2445 48 46.1983 47.6049 46.9018 46.9018C47.6049 46.1984 48 45.2445 48 44.25V3.75C48 2.75554 47.6049 1.80171 46.9018 1.09817C46.1984 0.395049 45.2445 0 44.25 0V0ZM46.5 44.25C46.5 44.8466 46.263 45.4192 45.8411 45.841C45.4192 46.2628 44.8466 46.5 44.25 46.5H3.75004C3.15339 46.5 2.58081 46.2629 2.15901 45.841C1.73721 45.4192 1.50009 44.8466 1.50009 44.25V3.75C1.50009 3.15335 1.73714 2.58077 2.15901 2.15897C2.58089 1.73717 3.15347 1.50004 3.75004 1.50004H44.25C44.8467 1.50004 45.4193 1.73709 45.8411 2.15897C46.2629 2.58085 46.5 3.15343 46.5 3.75V44.25Z" fill="#F8AC01"/>
<path d="M13.125 43.5002H6.75C6.15335 43.5002 5.58077 43.2631 5.15897 42.8412C4.73717 42.4193 4.50004 41.8468 4.50004 41.2502V31.1256H10.5C10.9142 31.1256 11.25 30.7898 11.25 30.3756C11.25 29.9615 10.9142 29.6256 10.5 29.6256H4.50004V28.1256H12C12.4142 28.1256 12.75 27.7898 12.75 27.3756C12.75 26.9615 12.4142 26.6256 12 26.6256H4.50004V25.1256H10.5C10.9142 25.1256 11.25 24.7898 11.25 24.3756C11.25 23.9615 10.9142 23.6256 10.5 23.6256H4.50004V6.7502C4.50004 6.15355 4.73709 5.58097 5.15897 5.15917C5.58085 4.73737 6.15343 4.50024 6.75 4.50024H23.6254C24.0396 4.50024 24.3754 4.16442 24.3754 3.75024C24.3754 3.33607 24.0396 3.00024 23.6254 3.00024H6.75C5.75554 3.00024 4.80171 3.39534 4.09817 4.09842C3.39505 4.80187 3 5.75579 3 6.75024V41.2502C3 42.2447 3.39509 43.1985 4.09817 43.9021C4.80163 44.6052 5.75554 45.0002 6.75 45.0002H13.125C13.5392 45.0002 13.875 44.6644 13.875 44.2502C13.875 43.8361 13.5392 43.5002 13.125 43.5002V43.5002Z" fill="#F8AC01"/>
<path d="M41.2504 3.00009H34.8754C34.4613 3.00009 34.1254 3.33591 34.1254 3.75009C34.1254 4.16426 34.4613 4.50009 34.8754 4.50009H41.2504C41.8471 4.50009 42.4197 4.73714 42.8415 5.15901C43.2633 5.58089 43.5004 6.15347 43.5004 6.75004V23.6255H37.5004C37.0862 23.6255 36.7504 23.9613 36.7504 24.3755C36.7504 24.7896 37.0862 25.1255 37.5004 25.1255H43.5004V26.6255H36.0004C35.5862 26.6255 35.2504 26.9613 35.2504 27.3755C35.2504 27.7896 35.5862 28.1255 36.0004 28.1255H43.5004V29.6255H37.5004C37.0862 29.6255 36.7504 29.9613 36.7504 30.3755C36.7504 30.7896 37.0862 31.1255 37.5004 31.1255H43.5004V41.25C43.5004 41.8467 43.2633 42.4193 42.8415 42.8411C42.4196 43.2629 41.847 43.5 41.2504 43.5H24.375C23.9608 43.5 23.625 43.8358 23.625 44.25C23.625 44.6642 23.9608 45 24.375 45H41.2504C42.2449 45 43.1987 44.6049 43.9023 43.9018C44.6054 43.1984 45.0004 42.2445 45.0004 41.25V6.75C45.0004 5.75554 44.6053 4.80171 43.9023 4.09817C43.1988 3.39505 42.2449 3 41.2504 3V3.00009Z" fill="#F8AC01"/>
<path d="M16.4503 15.8177C16.5655 15.516 16.4751 15.1748 16.2253 14.9699L13.9342 13.0949L14.954 10.2449H14.9544C15.0602 9.94055 14.9597 9.60272 14.7046 9.40551C14.4498 9.20829 14.0972 9.19591 13.8294 9.37504L11.4294 11.0324L9.17936 9.15741C8.92691 8.95015 8.56965 8.92973 8.29548 9.10719C8.02159 9.28431 7.89369 9.6188 7.9794 9.93386L8.77059 12.8589L6.32173 14.55C6.05789 14.7335 5.94037 15.065 6.02943 15.3737C6.11849 15.6824 6.39438 15.9003 6.71548 15.9151L9.60302 16.039L10.3868 18.9452V18.9448C10.4722 19.2629 10.7551 19.4883 11.0843 19.5H11.1144C11.4311 19.4993 11.7131 19.2998 11.8192 19.0011L12.8317 16.1736L15.7155 16.2974C16.0383 16.3125 16.3346 16.1193 16.4504 15.8176L16.4503 15.8177ZM12.3441 14.6552C12.012 14.6355 11.707 14.837 11.5941 15.1501L11.2191 16.2412L10.9154 15.1162C10.8304 14.7995 10.5495 14.5748 10.2217 14.5614L8.99922 14.5125L10.0231 13.8037C10.2842 13.6226 10.4028 13.2968 10.3191 12.9901L10.0003 11.8162L10.8889 12.5438H10.8892C11.1481 12.7571 11.517 12.7722 11.7929 12.5813L12.7492 11.9287L12.3367 13.0839C12.2295 13.3819 12.3209 13.7151 12.5653 13.9163L13.5289 14.7075L12.3441 14.6552Z" fill="#F8AC01"/>
<path d="M32.2836 16.2978L35.1675 16.1739L36.1799 19.0015C36.2861 19.3001 36.568 19.4997 36.8847 19.5004H36.9149C37.2427 19.487 37.5236 19.2623 37.6086 18.9452L38.3924 16.039L41.28 15.9151V15.9154C41.6011 15.9007 41.877 15.6828 41.966 15.374C42.0551 15.0653 41.9376 14.7339 41.6737 14.5504L39.2436 12.8742L40.0347 9.94924C40.1205 9.63417 39.9925 9.29969 39.7183 9.12257C39.4444 8.94511 39.0869 8.96554 38.8347 9.17279L36.5847 11.0478L34.1773 9.37533C33.9091 9.19621 33.5569 9.20859 33.3018 9.4058C33.047 9.60301 32.9465 9.94085 33.0523 10.2452L34.0721 13.0952L31.781 14.9702C31.5332 15.1751 31.4435 15.5153 31.558 15.8156C31.6725 16.116 31.9658 16.3102 32.2872 16.2978L32.2836 16.2978ZM35.6586 13.0802L35.2498 11.929L36.1987 12.5853C36.4742 12.7765 36.8432 12.7611 37.1023 12.5478L37.9909 11.8202L37.6722 12.9941C37.5885 13.3008 37.7073 13.6269 37.9685 13.8077L38.9997 14.5128L37.796 14.5654C37.4683 14.5788 37.1873 14.8035 37.1023 15.1202L36.7986 16.2452L36.4236 15.1541C36.3175 14.8557 36.0352 14.6562 35.7185 14.6555H35.6847L34.4883 14.7081L35.4519 13.9169L35.4523 13.9166C35.6887 13.7083 35.7697 13.3738 35.6548 13.0805L35.6586 13.0802Z" fill="#F8AC01"/>
<path d="M23.6587 6.15356L22.7587 9.06347H19.8748C19.5534 9.06414 19.2681 9.26939 19.1653 9.57407C19.0625 9.87876 19.1657 10.2149 19.4211 10.4098L21.7873 12.2172L20.8799 15.1536C20.7845 15.4646 20.9007 15.8018 21.1672 15.9883C21.434 16.1744 21.7903 16.1677 22.0498 15.9712L24.3748 14.1937L26.6998 15.9712C26.9593 16.1677 27.3155 16.1744 27.5824 15.9883C27.8489 15.8018 27.9651 15.4646 27.8697 15.1536L26.9623 12.2172L29.3284 10.4098C29.5839 10.2149 29.687 9.87876 29.5843 9.57407C29.4815 9.26939 29.1962 9.06414 28.8748 9.06347H25.9909L25.0909 6.15356C24.9935 5.83983 24.7032 5.62622 24.3747 5.62622C24.0463 5.62622 23.756 5.83984 23.6585 6.15356H23.6587ZM25.4362 10.5635H26.6587L25.6388 11.3436H25.6385C25.3884 11.5341 25.2836 11.8606 25.376 12.1612L25.751 13.3576L24.8322 12.6564V12.6561C24.5634 12.4505 24.1901 12.4505 23.9212 12.6561L23.0024 13.3572L23.3774 12.1609V12.1612C23.4698 11.8606 23.365 11.5341 23.1149 11.3436L22.0951 10.5635H23.3175C23.6463 10.5635 23.9366 10.3492 24.0337 10.0348L24.3786 8.90979L24.7235 10.0348H24.7238C24.8202 10.3478 25.1088 10.5618 25.4363 10.5635H25.4362Z" fill="#F8AC01"/>
</svg>
