<svg width="18" height="12" viewBox="0 0 18 12" fill="none" xmlns="http://www.w3.org/2000/svg">
<path d="M0.200214 6.46634L5.76112 11.8068C6.02932 12.0644 6.46413 12.0644 6.7323 11.8068L7.38089 11.1839C7.64863 10.9268 7.64914 10.5101 7.38204 10.2524L2.97492 5.99999L7.38203 1.74765C7.64914 1.48991 7.64863 1.07318 7.38089 0.816057L6.7323 0.193175C6.46411 -0.0643917 6.02929 -0.0643917 5.76112 0.193175L0.200244 5.53366C-0.067953 5.7912 -0.0679535 6.20878 0.200214 6.46634Z" fill="#1E1E1E"/>
<path d="M5.20021 6.46634L10.7611 11.8068C11.0293 12.0644 11.4641 12.0644 11.7323 11.8068L12.3809 11.1839C12.6486 10.9268 12.6491 10.5101 12.382 10.2524L7.97492 5.99999L12.382 1.74765C12.6491 1.48991 12.6486 1.07318 12.3809 0.816057L11.7323 0.193175C11.4641 -0.0643917 11.0293 -0.0643917 10.7611 0.193175L5.20024 5.53366C4.93205 5.7912 4.93205 6.20878 5.20021 6.46634Z" fill="#1E1E1E"/>
<path d="M10.2002 6.46634L15.7611 11.8068C16.0293 12.0644 16.4641 12.0644 16.7323 11.8068L17.3809 11.1839C17.6486 10.9268 17.6491 10.5101 17.382 10.2524L12.9749 5.99999L17.382 1.74765C17.6491 1.48991 17.6486 1.07318 17.3809 0.816057L16.7323 0.193175C16.4641 -0.0643917 16.0293 -0.0643917 15.7611 0.193175L10.2002 5.53366C9.93205 5.7912 9.93205 6.20878 10.2002 6.46634Z" fill="#1E1E1E"/>
</svg>
