<svg width="18" height="12" viewBox="0 0 18 12" fill="none" xmlns="http://www.w3.org/2000/svg">
<path d="M17.3818 6.46634L11.8209 11.8068C11.5527 12.0644 11.1179 12.0644 10.8497 11.8068L10.2011 11.1839C9.9334 10.9268 9.93289 10.5101 10.2 10.2524L14.6071 5.99999L10.2 1.74765C9.93289 1.48991 9.9334 1.07318 10.2011 0.816057L10.8497 0.193175C11.1179 -0.0643917 11.5527 -0.0643917 11.8209 0.193175L17.3818 5.53366C17.65 5.7912 17.65 6.20878 17.3818 6.46634Z" fill="#1E1E1E"/>
<path d="M12.3818 6.46634L6.82091 11.8068C6.55271 12.0644 6.1179 12.0644 5.84973 11.8068L5.20114 11.1839C4.9334 10.9268 4.93289 10.5101 5.2 10.2524L9.60711 5.99999L5.2 1.74765C4.93289 1.48991 4.9334 1.07318 5.20114 0.816057L5.84973 0.193175C6.11793 -0.0643917 6.55274 -0.0643917 6.82091 0.193175L12.3818 5.53366C12.65 5.7912 12.65 6.20878 12.3818 6.46634Z" fill="#1E1E1E"/>
<path d="M7.38182 6.46634L1.82091 11.8068C1.55271 12.0644 1.1179 12.0644 0.849728 11.8068L0.201141 11.1839C-0.0665982 10.9268 -0.0671131 10.5101 0.199996 10.2524L4.60711 5.99999L0.199996 1.74765C-0.067113 1.48991 -0.0665981 1.07318 0.201141 0.816057L0.849729 0.193175C1.11793 -0.0643917 1.55274 -0.0643917 1.82091 0.193175L7.38179 5.53366C7.64998 5.7912 7.64998 6.20878 7.38182 6.46634Z" fill="#1E1E1E"/>
</svg>
