<svg width="14" height="10" viewBox="0 0 14 10" fill="none" xmlns="http://www.w3.org/2000/svg">
<path d="M13.274 1.06215C13.3658 0.7095 13.274 0.449951 12.8325 0.449951H11.3716C10.9996 0.449951 10.8284 0.672824 10.7367 0.921088C10.7367 0.921088 9.99259 2.98337 8.94094 4.32061C8.60115 4.70711 8.44489 4.83124 8.25887 4.83124C8.16709 4.83124 8.02572 4.70711 8.02572 4.35447V1.06215C8.02572 0.63897 7.92155 0.449951 7.61399 0.449951H5.31724C5.0841 0.449951 4.9452 0.647434 4.9452 0.830811C4.9452 1.23142 5.47102 1.32452 5.52559 2.45299V4.90177C5.52559 5.4378 5.44126 5.53654 5.25524 5.53654C4.75918 5.53654 3.55376 3.46579 2.83944 1.096C2.69558 0.636149 2.5542 0.449951 2.17968 0.449951H0.718792C0.302103 0.449951 0.217773 0.672824 0.217773 0.921088C0.217773 1.36119 0.713831 3.54761 2.52692 6.4365C3.73482 8.4085 5.4363 9.47773 6.984 9.47773C7.91411 9.47773 8.0282 9.24075 8.0282 8.83168C8.0282 6.94713 7.94387 6.7694 8.41016 6.7694C8.62595 6.7694 8.99799 6.89353 9.86609 7.84427C10.8582 8.97274 11.0219 9.47773 11.5775 9.47773H13.0384C13.4551 9.47773 13.6659 9.24075 13.5444 8.77243C13.2666 7.78784 11.389 5.76223 11.3047 5.62682C11.0889 5.31085 11.1509 5.16979 11.3047 4.88767C11.3071 4.88485 13.0905 2.02981 13.274 1.06215V1.06215Z" fill="#4F4F4F"/>
</svg>
