<svg width="108" height="24" viewBox="0 0 108 24" fill="none" xmlns="http://www.w3.org/2000/svg">
<path d="M9.724 4.908C9.856 4.908 9.98067 4.952 10.098 5.04C10.23 5.128 10.318 5.23067 10.362 5.348L13.53 13.224C13.574 13.3413 13.6107 13.4953 13.64 13.686C13.684 13.862 13.706 14.016 13.706 14.148V19.516C13.706 19.648 13.6547 19.7653 13.552 19.868C13.464 19.956 13.354 20 13.222 20H11.154C11.022 20 10.9047 19.956 10.802 19.868C10.714 19.7653 10.67 19.648 10.67 19.516V16.986H4.642V19.516C4.642 19.648 4.59067 19.7653 4.488 19.868C4.4 19.956 4.29 20 4.158 20H2.112C1.98 20 1.86267 19.956 1.76 19.868C1.672 19.7653 1.628 19.648 1.628 19.516V14.148C1.628 14.016 1.64267 13.862 1.672 13.686C1.716 13.4953 1.76 13.3413 1.804 13.224L4.95 5.348C5.00867 5.23067 5.09667 5.128 5.214 5.04C5.346 4.952 5.478 4.908 5.61 4.908H9.724ZM4.752 13.972H10.56L8.14 7.922H7.172L4.752 13.972ZM20.8398 20C20.3118 20 19.8132 19.8973 19.3438 19.692C18.8745 19.4867 18.4638 19.208 18.1118 18.856C17.7598 18.504 17.4812 18.0933 17.2758 17.624C17.0705 17.1547 16.9678 16.6487 16.9678 16.106V5.392C16.9678 5.26 17.0118 5.15 17.0998 5.062C17.2025 4.95933 17.3198 4.908 17.4518 4.908H19.4978C19.6298 4.908 19.7398 4.95933 19.8278 5.062C19.9305 5.15 19.9818 5.26 19.9818 5.392V16.106C19.9818 16.3553 20.0625 16.568 20.2238 16.744C20.3998 16.9053 20.6052 16.986 20.8398 16.986H25.1518C25.4012 16.986 25.6065 16.9053 25.7678 16.744C25.9292 16.568 26.0098 16.3553 26.0098 16.106V5.392C26.0098 5.26 26.0538 5.15 26.1418 5.062C26.2445 4.95933 26.3618 4.908 26.4938 4.908H28.5618C28.6938 4.908 28.8038 4.95933 28.8918 5.062C28.9945 5.15 29.0458 5.26 29.0458 5.392V16.106C29.0458 16.6487 28.9432 17.1547 28.7378 17.624C28.5325 18.0933 28.2538 18.504 27.9018 18.856C27.5498 19.208 27.1318 19.4867 26.6478 19.692C26.1785 19.8973 25.6798 20 25.1518 20H20.8398ZM43.9017 4.908C44.0337 4.908 44.1437 4.95933 44.2317 5.062C44.3344 5.15 44.3857 5.26 44.3857 5.392V7.46C44.3857 7.592 44.3344 7.702 44.2317 7.79C44.1437 7.878 44.0337 7.922 43.9017 7.922H39.8537V19.516C39.8537 19.648 39.8024 19.7653 39.6997 19.868C39.6117 19.956 39.5017 20 39.3697 20H37.3017C37.1697 20 37.0597 19.956 36.9717 19.868C36.8837 19.7653 36.8397 19.648 36.8397 19.516V7.922H32.7917C32.6597 7.922 32.5424 7.878 32.4397 7.79C32.3517 7.702 32.3077 7.592 32.3077 7.46V5.392C32.3077 5.26 32.3517 5.15 32.4397 5.062C32.5424 4.95933 32.6597 4.908 32.7917 4.908H43.9017ZM74.5599 4.908C74.6919 4.908 74.8019 4.95933 74.8899 5.062C74.9926 5.15 75.0439 5.26 75.0439 5.392V7.46C75.0439 7.592 74.9926 7.702 74.8899 7.79C74.8019 7.878 74.6919 7.922 74.5599 7.922H70.5119V19.516C70.5119 19.648 70.4606 19.7653 70.3579 19.868C70.2699 19.956 70.1599 20 70.0279 20H67.9599C67.8279 20 67.7179 19.956 67.6299 19.868C67.5419 19.7653 67.4979 19.648 67.4979 19.516V7.922H63.4499C63.3179 7.922 63.2006 7.878 63.0979 7.79C63.0099 7.702 62.9659 7.592 62.9659 7.46V5.392C62.9659 5.26 63.0099 5.15 63.0979 5.062C63.2006 4.95933 63.3179 4.908 63.4499 4.908H74.5599ZM90.2077 19.582C90.2811 19.6993 90.2884 19.802 90.2297 19.89C90.1857 19.9633 90.0977 20 89.9657 20H87.4577C87.3257 20 87.1937 19.9633 87.0617 19.89C86.9297 19.802 86.8271 19.6993 86.7537 19.582L83.5637 13.972H81.4297V19.516C81.4297 19.648 81.3784 19.7653 81.2757 19.868C81.1877 19.956 81.0777 20 80.9457 20H78.8777C78.7457 20 78.6357 19.956 78.5477 19.868C78.4597 19.7653 78.4157 19.648 78.4157 19.516V5.392C78.4157 5.26 78.4597 5.15 78.5477 5.062C78.6357 4.95933 78.7457 4.908 78.8777 4.908H80.9457C81.0777 4.908 81.1877 4.95933 81.2757 5.062C81.3784 5.15 81.4297 5.26 81.4297 5.392V10.958H83.5637L86.7537 5.326C86.8271 5.20867 86.9297 5.11333 87.0617 5.04C87.1937 4.952 87.3257 4.908 87.4577 4.908H89.9657C90.0977 4.908 90.1857 4.952 90.2297 5.04C90.2884 5.11333 90.2811 5.20867 90.2077 5.326L86.1817 12.454L90.2077 19.582Z" fill="white"/>
<path d="M51.6954 8.47821L51.6929 8.47761L51.6469 8.50829C51.4768 8.62169 51.4219 8.84859 51.5327 9.03318L51.5325 9.03325L51.5358 9.0382C51.6492 9.20831 51.8761 9.26321 52.0607 9.15246L52.0607 9.15247L52.0623 9.1515C53.028 8.55252 54.2504 8.55251 55.2162 9.1515L55.2162 9.15151L55.2178 9.15246C55.4085 9.26685 55.6388 9.19043 55.7352 9.01682C55.8265 8.85248 55.7942 8.6252 55.6189 8.5083L55.6189 8.50826L55.6162 8.50657C54.419 7.75185 52.9006 7.7424 51.6954 8.47821Z" fill="white" stroke="white" stroke-width="0.25"/>
<path d="M53.6396 13.5381C54.269 13.5381 54.7835 13.0237 54.7835 12.3942C54.7835 11.7647 54.269 11.2502 53.6396 11.2502C53.0101 11.2502 52.4956 11.7647 52.4956 12.3942C52.4956 13.0226 52.9963 13.5381 53.6396 13.5381ZM53.6396 12.0097C53.8507 12.0097 54.024 12.183 54.024 12.3942C54.024 12.6054 53.8507 12.7787 53.6396 12.7787C53.4284 12.7787 53.2551 12.6054 53.2551 12.3942C53.2551 12.181 53.4177 12.0097 53.6396 12.0097Z" fill="white" stroke="white" stroke-width="0.25"/>
<path d="M61.0299 13.908L61.0177 13.9063L61.2234 13.7264C61.3742 13.5944 61.603 13.601 61.7571 13.7037L61.7709 13.7129L61.7818 13.7254C61.913 13.8754 61.9131 14.1029 61.7634 14.2527L61.7606 14.2555L61.7605 14.2554L60.9328 15.0323L60.9306 15.0343L60.9306 15.0343C60.6733 15.2645 60.3477 15.4283 60.0056 15.4841L59.1439 15.6868L59.1298 15.6901H59.1153H59.1076C59.0578 15.7029 59.0112 15.7029 58.98 15.7029C58.9784 15.7029 58.9768 15.7029 58.9752 15.7029C58.6896 15.7029 58.4047 15.6047 58.1769 15.4273L52.7191 20.5591L52.7089 20.5686L52.7085 20.568C52.6405 20.619 52.5511 20.6567 52.4552 20.6567H52.4424H52.4338L52.4338 20.6564L51.3298 20.5803C51.2391 20.579 51.1395 20.5431 51.0738 20.4601L50.8754 20.2493C50.8177 20.1909 50.7774 20.1107 50.7766 20.0126L50.7261 18.8514C50.7169 18.7912 50.7305 18.734 50.75 18.6885C50.7711 18.6392 50.8029 18.5944 50.8386 18.5586L50.8418 18.5555L50.8418 18.5555L51.3623 18.0705V17.539C51.3623 17.2153 51.6221 16.9556 51.9458 16.9556H51.9713H51.9796L51.9796 16.9559L52.498 16.9904L52.9171 16.5928L52.9287 16.0604C52.9295 15.7373 53.1889 15.4784 53.5122 15.4784H53.5376H53.5432L53.5432 15.4785L54.0635 15.5016L56.2892 13.409C56.126 13.15 56.0791 12.8329 56.1535 12.5202L56.344 11.5674L56.345 11.5627L56.3451 11.5627C56.427 11.2214 56.604 10.9093 56.8471 10.6527L56.8524 10.6471L56.8526 10.6472L59.2722 8.39319L59.2733 8.39215L59.2733 8.39216C59.6025 8.09295 60.1144 8.10557 60.4174 8.43838C60.4175 8.43851 60.4176 8.43864 60.4177 8.43877L61.8008 9.93496C61.8014 9.93539 61.8021 9.93582 61.8028 9.93625C61.8262 9.95188 61.8404 9.97177 61.8487 9.98807C61.8488 9.98829 61.8489 9.98851 61.849 9.98874C61.857 10.0047 61.8603 10.0191 61.8619 10.0285C61.8627 10.0335 61.8632 10.0379 61.8634 10.0416L61.8637 10.0467L61.8638 10.049L61.8638 10.05L61.8638 10.0505L61.8638 10.0508V10.0509C61.8638 10.0509 61.8638 10.051 61.7388 10.051L61.0299 13.908ZM61.0299 13.908L60.3966 14.5023C60.2351 14.6283 60.0552 14.7174 59.8682 14.7524H59.854H59.8395L59.8254 14.7558L58.9742 14.956C58.8302 14.9529 58.6918 14.9001 58.5943 14.8035L56.9539 13.0232C56.9226 12.9882 56.9053 12.9369 56.9 12.8699C56.8949 12.8046 56.9021 12.739 56.9086 12.6808L57.0981 11.7332C57.1435 11.542 57.2454 11.3591 57.3832 11.2088L59.7867 8.95793L59.7867 8.95798L59.7896 8.95508C59.7984 8.94629 59.8032 8.94428 59.805 8.94357C59.8074 8.94264 59.8136 8.94075 59.8286 8.94075C59.832 8.94075 59.8364 8.94134 59.8447 8.94517C59.8527 8.9489 59.8613 8.95403 59.8744 8.96261L61.2639 10.4658L61.0299 13.908ZM52.1065 17.7353L52.6133 17.7657L52.6133 17.7659H52.6208C52.7115 17.7659 52.8142 17.7317 52.8868 17.6773L52.8873 17.6779L52.8976 17.6682L53.5598 17.0442L53.5598 17.0443L53.5624 17.0416C53.6357 16.9683 53.6751 16.8737 53.6754 16.7763L53.6856 16.2581L54.1924 16.2885L54.1924 16.2887H54.1999C54.2906 16.2887 54.3933 16.2545 54.4659 16.2L54.4664 16.2007L54.4766 16.191L56.8043 13.9981L56.9345 14.1391L55.872 15.1299L55.872 15.1299L55.8689 15.133C55.7191 15.2827 55.7192 15.5103 55.8505 15.6602C55.9915 15.8214 56.2372 15.8127 56.3834 15.6847L56.3835 15.6848L56.3869 15.6816L57.4405 14.6872L57.6291 14.896L52.3075 19.9192L51.5239 19.8632L51.5209 19.8596L51.4752 18.9916L51.9801 18.522L51.9801 18.5221L51.9833 18.5189C52.0566 18.4456 52.096 18.3509 52.0963 18.2535L52.1065 17.7353Z" fill="white" stroke="white" stroke-width="0.25"/>
<path d="M60.5412 10.1542C60.1643 9.77724 59.554 9.73552 59.1447 10.0793H59.1428L59.1068 10.1127C58.7004 10.4901 58.6705 11.1423 59.0494 11.5503C59.4267 11.9566 60.0661 11.9868 60.4742 11.6078L60.4743 11.6079L60.4776 11.6046L60.4887 11.5935C60.8935 11.2158 60.9228 10.5649 60.5445 10.1575L60.5445 10.1574L60.5412 10.1542ZM59.9531 10.6836L59.9528 10.6839L59.9605 10.691C60.067 10.7893 60.0658 10.9477 59.9588 11.0565C59.8606 11.1447 59.71 11.1425 59.6007 11.0349C59.5047 10.9282 59.5108 10.7673 59.6075 10.6786C59.7141 10.5808 59.8638 10.5862 59.9531 10.6836Z" fill="white" stroke="white" stroke-width="0.25"/>
<path d="M47.8069 18.0865L47.7177 18.1742C48.4668 18.9362 49.3459 19.557 50.3295 19.9841L50.513 20.0638L50.5042 19.8638L50.4787 19.2908L50.4753 19.2147L50.4062 19.1828C49.5931 18.8076 48.8672 18.282 48.2536 17.6434L48.2536 17.6433L48.2518 17.6416C48.1011 17.4909 47.8692 17.4909 47.7185 17.6416C47.5678 17.7923 47.5678 18.0242 47.7185 18.1749L47.8069 18.0865ZM47.8069 18.0865C47.705 17.9847 47.705 17.8318 47.8069 17.73C47.9088 17.6281 48.0616 17.6281 48.1634 17.73C48.7875 18.3794 49.526 18.9143 50.3538 19.2963L50.3731 19.7302C50.3917 19.7384 50.4104 19.7466 50.4291 19.7547L50.3793 19.8694L50.2544 19.8749L50.2516 19.8126C49.3352 19.3949 48.5129 18.8047 47.8069 18.0865Z" fill="white" stroke="white" stroke-width="0.25"/>
<path d="M46.1187 12.3949L46.1237 12.3942C46.1237 8.23514 49.4936 4.86554 53.6395 4.86554C56.0071 4.86554 58.2367 5.98045 59.6521 7.87176L59.6896 7.92186H59.7522H59.8632C60.0688 7.93391 60.2731 8.00276 60.4423 8.12689L60.6215 7.95864C58.152 4.10555 53.0318 2.98053 49.1784 5.46315C45.4931 7.82948 44.2909 12.6778 46.4372 16.5047L46.4372 16.5047L46.439 16.5079C46.5479 16.6893 46.7774 16.756 46.9569 16.6384C47.1356 16.5294 47.2014 16.3028 47.0864 16.1245C46.4606 14.9839 46.1111 13.7075 46.1236 12.395L46.1187 12.3949Z" fill="white" stroke="white" stroke-width="0.25"/>
<path d="M61.0932 15.2573C60.901 15.4248 60.6849 15.5566 60.4445 15.6528L60.4782 15.7371L60.3786 15.7141C59.1511 18.2316 56.6209 19.8477 53.8274 19.9228L53.7794 19.9241L53.7445 19.9572L53.2097 20.4666L52.9834 20.6821H53.2959C53.3491 20.6821 53.403 20.6851 53.4591 20.6883L53.4655 20.6886C53.5183 20.6917 53.5739 20.6948 53.627 20.6948C57.0669 20.6948 60.1569 18.5483 61.372 15.3162L61.1666 15.1838L61.0932 15.2573Z" fill="white" stroke="white" stroke-width="0.25"/>
<path d="M47.5318 13.3305C47.8396 15.3058 49.0716 17.0025 50.8404 17.9085V17.9891L50.9933 17.9541L50.9942 17.9539L51.3355 17.8758L51.0904 17.7541V17.5266C51.0904 17.4512 51.1009 17.3865 51.1238 17.3062L51.1513 17.21L51.0634 17.1621C49.7143 16.4273 48.7379 15.1562 48.3716 13.6531H51.5829C51.7823 13.9682 52.0533 14.2392 52.3684 14.4386V16.457V16.7588L52.5818 16.5454L52.6328 16.4945L52.6694 16.4579V16.4061V16.0368C52.6694 15.7512 52.8234 15.4841 53.0699 15.3272L53.1278 15.2904V15.2218V14.7475C53.4669 14.8249 53.8122 14.8249 54.1513 14.7475V14.776V15.0697L54.3629 14.8661L54.6789 14.5623C55.1339 14.3493 55.5123 13.9971 55.752 13.5545L55.915 13.4031L55.9691 13.3529L55.9512 13.2812L55.9504 13.2779C55.942 13.2444 55.9328 13.2078 55.9233 13.1742C56.0669 12.7552 56.1001 12.3059 56.004 11.8702H56.0332L56.0541 11.7709L56.1041 11.5333L56.1793 11.2701L56.2249 11.1108H56.0591H55.6968C55.0092 10.0042 53.5649 9.64094 52.4317 10.2867L52.4317 10.2867L52.4298 10.2877C52.0909 10.4886 51.7957 10.7625 51.5925 11.1108H48.3838C48.9521 8.7504 51.1403 7.01818 53.6527 7.01818C55.3204 7.01818 56.9019 7.78983 57.9483 9.11024L58.0339 9.21828L58.1331 9.12253L58.5024 8.76596L58.5842 8.68695L58.5133 8.59805C57.3307 7.1166 55.5501 6.25879 53.6529 6.25879C50.6259 6.25879 48.0004 8.4793 47.5445 11.4315C47.5061 11.6484 47.6646 11.8321 47.8619 11.8679L47.873 11.8699H47.8843H47.9225H51.2876C51.2102 12.209 51.2102 12.5543 51.2876 12.8934H47.91C47.7008 12.8934 47.5303 13.064 47.5303 13.2731V13.3113V13.321L47.5318 13.3305ZM53.6397 10.7367C54.5512 10.7367 55.2975 11.4831 55.2975 12.3946C55.2975 13.3061 54.5512 14.0525 53.6397 14.0525C52.7281 14.0525 51.9818 13.3061 51.9818 12.3946C51.9818 11.4825 52.716 10.7367 53.6397 10.7367Z" fill="white" stroke="white" stroke-width="0.25"/>
<path d="M58.0993 15.6883V15.8679L55.9861 17.856L56.1221 18.0615C57.0973 17.6324 57.9421 16.9564 58.5789 16.1118L58.6749 15.9844L58.5283 15.9216C58.5013 15.9101 58.4691 15.8976 58.4405 15.8864C58.423 15.8797 58.4069 15.8734 58.3941 15.8682C58.354 15.8519 58.3216 15.8365 58.2937 15.8179L58.0993 15.6883Z" fill="white" stroke="white" stroke-width="0.25"/>
</svg>
